# xmcd CD database file
#
# Track frame offsets:
#	183
#	18548
#	37880
#	62495
#	81093
#	101185
#	121413
#	139835
#	163130
#	184793
#	207995
#
# Disc length: 3125 seconds
#
# Revision: 3
# Processed by: cddbd v1.5.2PL0 Copyright (c) Steve Scherf et al.
# Submitted via: CDex 1.51
#
DISCID=960c330b
DTITLE=The Temptations - Milestone
DYEAR=1991
DGENRE=Soul/R&B
TTITLE0=Eenie, Meenie, Miinie, Moe
TTITLE1=Any Old Lovin' (Just Won't Do)
TTITLE2=Hoops Of Fire
TTITLE3=We Should Be Makin' Love
TTITLE4=The Jones'
TTITLE5=Get Ready
TTITLE6=Corner Of My Heart
TTITLE7=Whenever You're Ready
TTITLE8=Do It Easy
TTITLE9=Wait A Minute
TTITLE10=Celebrate
EXTD=YEAR: 1991
EXTT0=
EXTT1=
EXTT2=
EXTT3=
EXTT4=
EXTT5=
EXTT6=
EXTT7=
EXTT8=
EXTT9=
EXTT10=
PLAYORDER=
